<?xml version="1.0" encoding="UTF-8"?>
<svg width="1080" height="1080" version="1.1" viewBox="0 0 1080 1080" xml:space="preserve" xmlns="http://www.w3.org/2000/svg"><rect width="1080" height="1080" ry="143.6" fill="#5e1f32" stroke="#000" stroke-linecap="round" stroke-linejoin="round" stroke-width="1.134"/><g transform="matrix(.8179 0 0 .8179 94.96 18.5)" fill="#fff" stroke-width="1.178"><path d="m546 266c2.623-7.338 3.898-14.04 7.899-41.52 5.843-40.13 10.86-61.5 24.55-104.6 10.05-31.63 8.841-41.88-4.007-33.98-32.04 19.69-50.96 85.54-44.33 154.3 2.244 23.28 11.44 38.2 15.89 25.77z"/><path d="m587.7 304.9c2.996-3.19 6.151-10.13 16.98-37.38 24.73-62.22 39.94-82.48 75.15-100.1 36.56-18.31 42.02-29.94 15.47-32.97-55.85-6.385-89.02 24.94-108.5 102.5-10.68 42.51-10.19 79.81 0.8967 68.01z"/><path d="m467.8 327.1c-0.0578-4.139-4.034-17.07-7.178-23.34-28.12-56.11-92.03-62.23-124.8-11.95-12 18.41-6.916 22.46 15.38 12.25 40.3-18.45 51.31-16.94 90.1 12.28 22.11 16.66 26.59 18.48 26.48 10.76z"/><path d="m622.7 338.7c3.609-2.94 12.77-10.71 20.36-17.26 35.34-30.51 50.29-33.47 89.1-17.63 30.77 12.56 36.07 11.74 28.22-4.332-11.25-23.05-40.66-41.31-66.65-41.39-37.08-0.1042-80.83 40.3-81.34 75.12-0.1857 12.66 0.8389 13.2 10.31 5.489z"/><path d="m515.2 343.8c6.751-11.82-2.472-78.08-15.38-110.5-0.6286-1.579-2.308-5.785-3.733-9.348-19.17-47.96-52.27-82.46-81.09-84.52-8.019-0.5738-8.407-0.4758-11.89 3.004-6.308 6.308-3.673 12.68 14.37 34.73 36.79 44.98 51.86 70.35 67.65 113.9 10.55 29.12 17.02 46.4 18.26 48.8 3.568 6.919 9.053 8.736 11.81 3.911z"/><path d="m92.29 769.2c41.64-2.853 55.41-10.62 60.5-34.13 5.743-26.52 6.474-28.78 12.57-38.84 11.18-18.46 35.91-51.74 92.79-124.9 17.89-23 40.15-51.88 49.46-64.19 48.6-64.25 61.31-76.55 71.13-68.82 5.685 4.472 4.028 10.45-12.21 44.04-16.77 34.69-20.41 52.03-14.85 70.72 4.669 15.69 9.849 20.61 21.68 20.61 15.69 0 17.7-2.976 14.94-22.05-9.142-63.02 42.18-158.6 73.97-137.8 9.808 6.426 9.689 39.84-0.217 60.93-10.18 21.68-9.806 32.15 1.347 37.84 12.26 6.256 21.64-4.589 32.72-37.85 9.851-29.56 18.54-43.56 27.02-43.56 19.87 0 19.42 29.38-1.212 79-9.67 23.25-12.89 34.86-12.87 46.33 0.0456 21.91 9.786 19.61 22.9-5.406 20.32-38.75 24.06-38.16 46.11 7.279 4.873 10.04 10.28 21.16 12.02 24.71 8.058 16.44 37.2 21.73 50.56 9.185 5.829-5.476 2.872-9.849-20.97-31.01-32.11-28.5-29.8-40.67 4.587-24.2 26.06 12.48 37.89 14.08 37.89 5.135 0-6.761-24.58-25.71-52.41-40.41-26.93-14.22-32.88-19.6-34.79-31.45-2.662-16.53 4.807-27.34 18.89-27.34 12.5 0 35.46 17.65 86.57 66.56 49.59 47.45 63.52 55.79 79.53 47.63 14.75-7.523 9.568-17.39-20.58-39.24-53.15-38.5-84.67-79.31-71.46-92.52 14.48-14.48 60.43 21.73 135.1 106.4 106.8 121.2 147.4 173.8 162.5 210.7 9.478 23.16 10.72 23.77 48.29 23.66 34.86-0.1007 53.58-3.062 59.55-9.42 5.133-5.464 1.052-10.41-27.75-33.66-9.069-7.32-17.81-14.45-19.43-15.85-1.62-1.399-7.715-6.646-13.55-11.66-29.32-25.22-58.03-53.42-96.54-94.82-17.58-18.9-21.31-22.99-30.1-32.98-4.846-5.506-9.095-10.28-9.444-10.6-1.9-1.768-27.71-31.49-34.77-40.05-26.57-32.18-45.25-57.25-70.63-94.82-41.06-60.76-55.9-77.22-73.97-82.05-7.256-1.941-15.06-0.3067-44.27 9.265-50.08 16.41-74.47 20.87-114.3 20.93-29.18 0.0396-28.64 0.1157-67.73-9.528-53.88-13.29-63.27-14.18-80.81-7.596-14.78 5.55-23.08 13.26-36.68 34.08-62.47 95.63-104.5 148.5-170.5 214.5-44.53 44.55-72.63 69.12-126.6 110.8-37.51 28.93-43.23 34.28-43.23 40.54 0 14.5 25.37 19.58 79.35 15.88z"/></g><g transform="translate(-2.725 -49.5)" fill="#fff" stroke-width="1.313"><path d="m896.7 754.7c-11.21-0.3672-21.42 0.631-26.64 3.424-6.819 3.65-31.63 63.73-60.27 146.1-36.3 104.2-38.83 121.8-19.04 132.7 11.23 6.177 42.56 7.492 48.57 2.04 3.456-3.13 7.472-15.35 11.73-35.73 5.566-26.64 0.9148-23.9 39.13-22.89 18.49 0.4891 33.83 1.08 34.12 1.313 0.2784 0.2333 2.186 7.852 4.238 16.93 8.084 35.76 14.72 41.16 53.27 43.34 29.85 1.682 29.75 1.9 20.7-42.56-19.54-96.05-52.83-225.8-59.83-233.4-5.804-6.216-27.28-10.62-45.96-11.23zm2.435 63.81c1.266-0.0118 3.72 12.77 7.531 39.21 2.208 15.31 5.29 36.03 6.85 46.02 2.834 18.18 2.833 18.18-17.43 18.15-11.14-0.0118-21.3-0.688-22.58-1.499-2.016-1.28-1.633-4.165 2.932-22.03 6.195-24.23 21.63-78.88 22.54-79.79 0.052-0.052 0.1073-0.0789 0.1642-0.0795z"/><path d="m579.1 1007c-2.154-76.66-2.708-131.3-1.374-135.8 1.742-5.8 1.891-5.527 21.82 39.67 30.77 69.81 53.94 116.7 60.79 123 5.713 5.276 14.26 6.705 40.16 6.714 24.18 0.013 24.18 0.013 25.19-9.66 5.519-53.12 13.34-179.5 13.73-221.6 0.44-49.24-0.4776-50.71-33.41-53.43-34.35-2.841-30.45-12.96-30.58 79.34-0.0632 44.46-0.5851 83.9-1.16 87.67-2.32 15.17-4.581 10.99-32.59-60.21-43.92-111.7-40.72-108.1-98.85-108.3-15.39-0.0322-13.49-4.546-16.56 39.42-1.365 19.57-3.478 48.81-4.694 64.98-13.46 178.8-13.42 179 23.23 181.8 38.35 2.88 35.38 5.788 34.28-33.65z"/><path d="m394.8 1039c1.552-1.288 2.264-4.967 2.264-11.71 0-5.406 1.011-24.98 2.246-43.51 1.235-18.53 3.687-56.31 5.447-83.97 4.093-64.27 5.976-85.24 7.862-87.51 0.9805-1.181 10.74-2.218 27.69-2.943 29.6-1.266 34.74-2.796 39.07-11.65 2.694-5.512 6.735-39.1 5.036-41.86-1.074-1.738-135.8-1.807-169.7-0.0875-31.5 1.598-37.12 7.551-37.39 39.63-0.1191 13.92-0.1191 13.92 32.15 14.22 17.74 0.165 32.59 0.6109 32.97 0.991 0.794 0.794-1.272 34.02-5.983 96.17-4.485 59.2-4.77 115.8-0.6157 121.9 7.403 10.92 49.41 18.26 59 10.31z"/><path d="m221.6 1039c8.648-4.149 15.92-25.24 14.15-41.03-1.394-12.36-0.2817-12.07-48.61-12.59-42.73-0.4579-42.73-0.4579-41.58-22.43 2.027-39.18-0.5302-35.62 27.02-37.71 30.72-2.333 32.52-3.487 38-24.52 7.582-29.11 5.372-31.33-31.92-31.98-29.89-0.5273-28.69 1.436-24.38-39.89 1.969-18.89-0.792-17.53 39.55-19.4 38.5-1.781 36.76-1.253 41.73-12.72 2.362-5.455 5.895-35.12 4.589-38.52-0.9177-2.392-145.4-3.21-147-0.8321-2.614 4.229-15.31 194.1-15.49 231.6-0.2211 48.06 0.9245 49.52 40.69 51.88 32.35 1.918 97.8 0.7711 103.2-1.807z"/></g></svg>
