<?xml version="1.0" encoding="UTF-8"?>
<!-- Created with Inkscape (http://www.inkscape.org/) -->
<svg width="40" height="40" version="1.1" viewBox="0 0 1080 1080" xmlns="http://www.w3.org/2000/svg">
 <g transform="translate(-4.056 47.05)" fill="currentColor" stroke-width="1.178">
  <path d="m546 266c2.623-7.338 3.898-14.04 7.899-41.52 5.843-40.13 10.86-61.5 24.55-104.6 10.05-31.63 8.841-41.88-4.007-33.98-32.04 19.69-50.96 85.54-44.33 154.3 2.244 23.28 11.44 38.2 15.89 25.77z"/>
  <path d="m587.7 304.9c2.996-3.19 6.151-10.13 16.98-37.38 24.73-62.22 39.94-82.48 75.15-100.1 36.56-18.31 42.02-29.94 15.47-32.97-55.85-6.385-89.02 24.94-108.5 102.5-10.68 42.51-10.19 79.81 0.8967 68.01z"/>
  <path d="m467.8 327.1c-0.0578-4.139-4.034-17.07-7.178-23.34-28.12-56.11-92.03-62.23-124.8-11.95-12 18.41-6.916 22.46 15.38 12.25 40.3-18.45 51.31-16.94 90.1 12.28 22.11 16.66 26.59 18.48 26.48 10.76z"/>
  <path d="m622.7 338.7c3.609-2.94 12.77-10.71 20.36-17.26 35.34-30.51 50.29-33.47 89.1-17.63 30.77 12.56 36.07 11.74 28.22-4.332-11.25-23.05-40.66-41.31-66.65-41.39-37.08-0.1042-80.83 40.3-81.34 75.12-0.1857 12.66 0.8389 13.2 10.31 5.489z"/>
  <path d="m515.2 343.8c6.751-11.82-2.472-78.08-15.38-110.5-0.6286-1.579-2.308-5.785-3.733-9.348-19.17-47.96-52.27-82.46-81.09-84.52-8.019-0.5738-8.407-0.4758-11.89 3.004-6.308 6.308-3.673 12.68 14.37 34.73 36.79 44.98 51.86 70.35 67.65 113.9 10.55 29.12 17.02 46.4 18.26 48.8 3.568 6.919 9.053 8.736 11.81 3.911z"/>
  <path d="m92.29 769.2c41.64-2.853 55.41-10.62 60.5-34.13 5.743-26.52 6.474-28.78 12.57-38.84 11.18-18.46 35.91-51.74 92.79-124.9 17.89-23 40.15-51.88 49.46-64.19 48.6-64.25 61.31-76.55 71.13-68.82 5.685 4.472 4.028 10.45-12.21 44.04-16.77 34.69-20.41 52.03-14.85 70.72 4.669 15.69 9.849 20.61 21.68 20.61 15.69 0 17.7-2.976 14.94-22.05-9.142-63.02 42.18-158.6 73.97-137.8 9.808 6.426 9.689 39.84-0.217 60.93-10.18 21.68-9.806 32.15 1.347 37.84 12.26 6.256 21.64-4.589 32.72-37.85 9.851-29.56 18.54-43.56 27.02-43.56 19.87 0 19.42 29.38-1.212 79-9.67 23.25-12.89 34.86-12.87 46.33 0.0456 21.91 9.786 19.61 22.9-5.406 20.32-38.75 24.06-38.16 46.11 7.279 4.873 10.04 10.28 21.16 12.02 24.71 8.058 16.44 37.2 21.73 50.56 9.185 5.829-5.476 2.872-9.849-20.97-31.01-32.11-28.5-29.8-40.67 4.587-24.2 26.06 12.48 37.89 14.08 37.89 5.135 0-6.761-24.58-25.71-52.41-40.41-26.93-14.22-32.88-19.6-34.79-31.45-2.662-16.53 4.807-27.34 18.89-27.34 12.5 0 35.46 17.65 86.57 66.56 49.59 47.45 63.52 55.79 79.53 47.63 14.75-7.523 9.568-17.39-20.58-39.24-53.15-38.5-84.67-79.31-71.46-92.52 14.48-14.48 60.43 21.73 135.1 106.4 106.8 121.2 147.4 173.8 162.5 210.7 9.478 23.16 10.72 23.77 48.29 23.66 34.86-0.1007 53.58-3.062 59.55-9.42 5.133-5.464 1.052-10.41-27.75-33.66-9.069-7.32-17.81-14.45-19.43-15.85-1.62-1.399-7.715-6.646-13.55-11.66-29.32-25.22-58.03-53.42-96.54-94.82-17.58-18.9-21.31-22.99-30.1-32.98-4.846-5.506-9.095-10.28-9.444-10.6-1.9-1.768-27.71-31.49-34.77-40.05-26.57-32.18-45.25-57.25-70.63-94.82-41.06-60.76-55.9-77.22-73.97-82.05-7.256-1.941-15.06-0.3067-44.27 9.265-50.08 16.41-74.47 20.87-114.3 20.93-29.18 0.0396-28.64 0.1157-67.73-9.528-53.88-13.29-63.27-14.18-80.81-7.596-14.78 5.55-23.08 13.26-36.68 34.08-62.47 95.63-104.5 148.5-170.5 214.5-44.53 44.55-72.63 69.12-126.6 110.8-37.51 28.93-43.23 34.28-43.23 40.54 0 14.5 25.37 19.58 79.35 15.88z"/>
  <path d="m816.4 683.2c-8.535-0.2796-16.31 0.4804-20.28 2.607-5.192 2.779-24.08 48.52-45.89 111.2-27.64 79.36-29.56 92.75-14.5 101 8.552 4.703 32.4 5.704 36.98 1.553 2.631-2.383 5.689-11.69 8.93-27.2 4.238-20.28 0.6965-18.2 29.79-17.43 14.08 0.3724 25.76 0.8224 25.98 1 0.212 0.1776 1.664 5.978 3.227 12.89 6.155 27.23 11.21 31.34 40.56 33 22.73 1.281 22.65 1.447 15.76-32.4-14.88-73.13-40.22-171.9-45.55-177.7-4.419-4.733-20.77-8.087-34.99-8.553zm1.854 48.58c0.9638-0.00909 2.832 9.726 5.734 29.85 1.681 11.66 4.028 27.43 5.215 35.04 2.158 13.84 2.157 13.84-13.27 13.82-8.485-9e-3 -16.22-0.5238-17.19-1.141-1.535-0.9745-1.243-3.171 2.232-16.77 4.717-18.45 16.47-60.06 17.16-60.75 0.03964-0.03963 0.08173-0.06014 0.125-0.06055z"/>
  <path d="m574.6 875.6c-1.64-58.37-2.062-99.97-1.046-103.4 1.326-4.416 1.44-4.208 16.61 30.2 23.43 53.15 41.07 88.84 46.28 93.65 4.35 4.017 10.86 5.105 30.58 5.112 18.41 7e-3 18.41 7e-3 19.18-7.355 4.202-40.44 10.16-136.7 10.45-168.7 0.335-37.49-0.3636-38.61-25.44-40.68-26.15-2.163-23.18-9.871-23.28 60.41-0.0481 33.85-0.4455 63.88-0.8834 66.75-1.766 11.55-3.488 8.364-24.81-45.84-33.44-85.01-31-82.34-75.26-82.43-11.72-0.0245-10.27-3.461-12.61 30.01-1.039 14.9-2.648 37.16-3.574 49.47-10.25 136.1-10.22 136.3 17.69 138.4 29.2 2.193 26.94 4.407 26.1-25.62z"/>
  <path d="m434.3 900c1.182-0.981 1.724-3.782 1.724-8.914 0-4.116 0.7696-19.02 1.71-33.13 0.9406-14.11 2.807-42.87 4.147-63.93 3.116-48.93 4.55-64.9 5.986-66.63 0.7465-0.8995 8.178-1.689 21.08-2.241 22.54-0.9636 26.45-2.129 29.75-8.87 2.051-4.197 5.128-29.77 3.834-31.87-0.8178-1.323-103.4-1.376-129.2-0.0666-23.98 1.217-28.26 5.749-28.47 30.17-0.0907 10.6-0.0907 10.6 24.48 10.83 13.51 0.1256 24.81 0.4651 25.1 0.7545 0.6045 0.6045-0.9688 25.9-4.555 73.22-3.415 45.07-3.632 88.15-0.4688 92.82 5.636 8.317 37.62 13.9 44.92 7.847z"/>
  <path d="m302.4 899.8c6.584-3.159 12.12-19.22 10.77-31.24-1.061-9.409-0.2145-9.19-37.01-9.584-32.53-0.3486-32.53-0.3486-31.66-17.08 1.543-29.83-0.4037-27.12 20.57-28.71 23.39-1.776 24.76-2.655 28.93-18.67 5.773-22.16 4.09-23.85-24.3-24.35-22.76-0.4015-21.84 1.093-18.56-30.37 1.499-14.38-0.603-13.35 30.11-14.77 29.31-1.356 27.99-0.9541 31.77-9.687 1.798-4.153 4.488-26.74 3.494-29.33-0.6987-1.821-110.7-2.444-111.9-0.6335-1.99 3.22-11.66 147.8-11.79 176.3-0.1683 36.59 0.7039 37.7 30.98 39.5 24.63 1.46 74.46 0.5871 78.55-1.376z"/>
 </g>
</svg>
