<?xml version="1.0" encoding="UTF-8"?>
<!-- Created with Inkscape (http://www.inkscape.org/) -->
<svg width="40" height="40" version="1.1" viewBox="0 0 1080 1080" xmlns="http://www.w3.org/2000/svg">
 <path d="m248.9 39.66 794.4 794.4-0.41 210.3-210.1 0.1616-794.4-794.4z" stroke="currentColor" fill="none" stroke-linecap="round" stroke-linejoin="round" stroke-width="47.63"/>
 <g transform="rotate(45)" stroke-width="7.369" fill="currentColor" >
  <path d="m356.2-58.52q-3.537-5.011-9.433-7.664t-14.15-2.653q-12.68 0-19.46 5.601-6.78 5.306-6.78 15.62 0 7.369 1.769 11.79 1.769 4.127 5.011 6.78 3.537 2.653 8.254 4.127 5.011 1.474 11.2 2.948 15.03 3.537 28.3 7.959 13.56 4.422 23.88 12.38 10.32 7.664 16.21 19.75 6.19 11.79 6.19 30.07 0 14.74-4.422 26.53-4.422 11.79-13.85 20.34-9.138 8.254-23.29 12.97-13.85 4.422-33.01 4.422-13.56 0-24.47-2.653-10.91-2.358-19.46-6.78-8.254-4.422-14.15-10.61-5.895-6.485-9.433-14.15-6.19-13.26-1.179-21.81 5.011-8.843 19.75-8.843 5.011 0 10.02 2.063 5.306 2.063 10.32 9.728 3.832 5.895 11.2 9.728 7.369 3.537 17.39 3.537 7.075 0 12.97-1.474 5.895-1.769 9.728-4.716 4.127-2.948 6.19-7.369 2.358-4.716 2.358-10.32 0-7.959-2.653-12.97-2.358-5.011-6.78-8.254-4.127-3.243-9.728-5.011-5.601-2.063-12.09-3.537-15.03-3.537-28-7.664-12.68-4.127-22.11-10.91-9.138-7.075-14.44-18.28-5.011-11.5-5.011-29.77 0-13.85 4.716-25.06 5.011-11.5 13.85-19.46 9.138-7.959 21.81-12.09 12.97-4.422 29.18-4.422 11.79 0 21.52 2.358 10.02 2.063 17.98 6.485 7.959 4.127 13.56 10.02 5.895 5.895 9.433 12.97 6.78 13.85 2.358 22.11-4.422 8.254-17.98 8.254-7.075 0-12.68-2.358-5.601-2.653-10.61-9.728z"/>
  <path d="m471.5 109.5q-17.69 0-26.53-8.843-8.843-8.843-8.843-26.53v-160.7q0-11.2 5.306-16.51 5.601-5.601 16.8-5.601 11.2 0 16.51 5.601 5.601 5.306 5.601 16.51v138.5q0 8.843 4.422 13.26 4.422 4.422 13.26 4.422h49.52q10.02 0 14.74 5.011 5.011 4.716 5.011 14.74 0 10.02-5.011 15.03-5.011 5.011-15.03 5.011z"/>
  <path d="m629.6-20.19h59.84q9.433 0 14.44 5.011 5.306 4.716 5.306 14.15 0 9.433-5.306 14.44-5.011 4.716-14.44 4.716h-59.84v41.27q0 5.895 2.948 8.843t8.843 2.948h57.48q9.728 0 14.44 4.716t4.716 14.44q0 9.728-4.716 14.44t-14.44 4.716h-84.01q-15.03 0-22.4-7.075-7.075-7.369-7.075-22.4v-156.2q0-15.03 7.075-22.11 7.369-7.369 22.4-7.369h84.01q9.728 0 14.44 4.716 4.716 4.716 4.716 14.44 0 9.728-4.716 14.44t-14.44 4.716h-57.48q-6.485 0-9.138 2.948-2.653 2.653-2.653 8.843zm170.1-45.69h-34.49q-10.02 0-15.03-5.011t-5.011-15.03q0-10.02 4.716-14.74 5.011-5.011 15.03-5.011h113.8q10.02 0 14.74 5.011 5.011 4.716 5.011 14.74 0 10.02-5.011 15.03t-15.03 5.011h-34.49v153.3q0 11.2-5.601 16.8-5.306 5.306-16.51 5.306t-16.8-5.306q-5.306-5.601-5.306-16.8z"/>
  <path d="m919.7-75.91q0-16.51 7.959-24.47 7.959-8.254 23.29-8.254 12.38 0 19.16 5.306 7.075 5.306 10.61 15.62l42.15 126.5q0.2947 0.8843 0.5895 1.474 0.5895 0.2948 1.179 0.2948 0.5895 0 0.8843-0.2948 0.2948-0.5895 0.2948-1.474v-126.8q0-10.32 5.011-15.33 5.306-5.306 15.62-5.306t15.33 5.306q5.306 5.011 5.306 15.33v167.7q0 16.51-7.959 24.76-7.959 7.959-23.29 7.959-12.38 0-19.46-5.306-6.78-5.306-10.32-15.62l-42.15-126.5q-0.2948-0.8843-0.8843-1.179-0.2948-0.5895-0.8843-0.5895-0.5895 0-0.8843 0.5895-0.2948 0.2948-0.2948 1.179v126.8q0 10.32-5.306 15.62-5.011 5.011-15.33 5.011-10.32 0-15.62-5.011-5.011-5.306-5.011-15.62z"/>
  <path d="m1157 25.5h37.73l-17.39-73.99q-0.5895-2.063-1.474-2.063t-1.474 2.063zm54.53 72.51-8.548-37.14h-54.24l-8.548 37.14q-1.769 7.664-6.78 11.2-4.716 3.242-13.85 3.242-13.56 0-19.16-7.075-5.306-7.075-1.474-21.52l41.86-165.1q3.537-14.15 12.09-20.63 8.843-6.78 22.99-6.78t22.7 6.78q8.843 6.485 12.38 20.63l41.86 165.1q3.832 14.44-2.063 21.52-5.601 7.075-18.87 7.075-9.138 0-13.85-3.537-4.716-3.537-6.485-10.91z"/>
 </g>
</svg>
