<?xml version="1.0" encoding="UTF-8"?>
<!-- Created with Inkscape (http://www.inkscape.org/) -->
<svg width="100" height="100" version="1.1" viewBox="0 0 264.6 264.6" xmlns="http://www.w3.org/2000/svg" xmlns:cc="http://creativecommons.org/ns#" xmlns:dc="http://purl.org/dc/elements/1.1/" xmlns:rdf="http://www.w3.org/1999/02/22-rdf-syntax-ns#" xmlns:xlink="http://www.w3.org/1999/xlink">
 <defs>
  <linearGradient id="linearGradient2" x1="126.2" x2="126.2" y1="523.5" y2="282.6" gradientUnits="userSpaceOnUse">
   <stop stop-color="#d60270" offset="0"/>
   <stop stop-color="#9b4f96" offset=".4467"/>
   <stop stop-color="#9b4f96" offset=".567"/>
   <stop stop-color="#0038a8" offset="1"/>
  </linearGradient>
  <clipPath id="clipPath6">
   <path d="m95.71 418.6v27.01c9.285-5.395 18.57-10.79 27.86-16.18l0.0312-12.47c-4.178-2.436-8.355-4.872-12.53-7.309-5.118 2.985-10.24 5.97-15.35 8.955z" color="#000000" color-rendering="auto" dominant-baseline="auto" image-rendering="auto" shape-rendering="auto" solid-color="#000000" style="font-feature-settings:normal;font-variant-alternates:normal;font-variant-caps:normal;font-variant-ligatures:normal;font-variant-numeric:normal;font-variant-position:normal;isolation:auto;mix-blend-mode:normal;shape-padding:0;text-decoration-color:#000000;text-decoration-line:none;text-decoration-style:solid;text-indent:0;text-orientation:mixed;text-transform:none;white-space:normal"/>
   <path d="m95.1 452.6c-0.5304 0.5773-1.061 0.2143-1.591-0.1511-4.259-2.483-8.519-4.967-12.78-7.45-4.179 2.437-8.358 4.874-12.54 7.311 18.38 10.72 36.77 21.44 55.15 32.16l6e-3 -48.34c-9.417 5.49-18.83 10.98-28.25 16.47z" color="#000000" color-rendering="auto" dominant-baseline="auto" image-rendering="auto" shape-rendering="auto" solid-color="#000000" style="font-feature-settings:normal;font-variant-alternates:normal;font-variant-caps:normal;font-variant-ligatures:normal;font-variant-numeric:normal;font-variant-position:normal;isolation:auto;mix-blend-mode:normal;shape-padding:0;text-decoration-color:#000000;text-decoration-line:none;text-decoration-style:solid;text-indent:0;text-orientation:mixed;text-transform:none;white-space:normal"/>
   <path d="m65.38 447.4c3.233-1.885 6.466-3.77 9.699-5.654-3.233-1.885-6.466-3.771-9.699-5.656v11.31z"/>
   <path d="m68.2 399.3 24.67 14.38c4.179-2.437 8.358-4.874 12.54-7.311-8.223-4.795-16.45-9.59-24.67-14.38-4.179 2.437-8.358 4.874-12.54 7.311z"/>
   <path d="m65.38 394.3c3.233-1.885 6.466-3.77 9.699-5.654-3.233-1.885-6.466-3.77-9.699-5.654v11.31z"/>
   <path d="m156.4 466.8c8.287-4.833 16.57-9.665 24.86-14.5-8.287-4.832-16.57-9.664-24.86-14.5v28.99z"/>
   <path d="m156.4 431.2c9.758 5.69 19.52 11.38 29.27 17.07 4.111-7.192 8.223-14.38 12.33-21.58-13.87-8.088-27.74-16.18-41.61-24.26v28.77z"/>
   <path d="m159.2 397.5c13.34 7.78 26.68 15.56 40.02 23.34v-30.54c-4.613-2.69-9.227-5.38-13.84-8.07-8.728 5.089-17.46 10.18-26.18 15.27z"/>
   <path d="m108.9 280.6c-25.99 15.16-51.99 30.31-77.98 45.48v144.8c31.27 18.24 62.54 36.47 93.81 54.71 26.1-15.22 52.2-30.44 78.3-45.66 10.22-17.89 20.45-35.78 30.67-53.67v-73.61c-41.37-24.14-82.76-48.26-124.1-72.39-0.222 0.1296-0.444 0.2591-0.666 0.3887zm85.98 55.97c-23.38 13.64-46.77 27.27-70.15 40.91-28.44-16.58-56.88-33.17-85.32-49.75 23.39-13.64 46.77-27.27 70.16-40.91 28.44 16.58 56.88 33.17 85.31 49.75zm-72.99 45.85v134.9c-28.43-16.58-56.87-33.16-85.3-49.74 1e-6 -44.96 0-89.92 0-134.9 28.43 16.58 56.87 33.16 85.3 49.74zm106.1-26.53v67.86c-9.992 17.48-19.98 34.96-29.97 52.44-23.49 13.7-46.99 27.4-70.48 41.1-1e-5 -44.96 0-89.92 0-134.9 24.32-14.18 48.65-28.37 72.97-42.55 9.161 5.342 18.32 10.68 27.48 16.03z" color="#000000" color-rendering="auto" dominant-baseline="auto" image-rendering="auto" shape-rendering="auto" solid-color="#000000" style="font-feature-settings:normal;font-variant-alternates:normal;font-variant-caps:normal;font-variant-ligatures:normal;font-variant-numeric:normal;font-variant-position:normal;isolation:auto;mix-blend-mode:normal;shape-padding:0;text-decoration-color:#000000;text-decoration-line:none;text-decoration-style:solid;text-indent:0;text-orientation:mixed;text-transform:none;white-space:normal"/>
  </clipPath>
  <filter id="filter16" x="0" y="0" width="1" height="1" color-interpolation-filters="sRGB">
   <feComponentTransfer result="component">
    <feFuncR offset="-0.05" type="gamma"/>
    <feFuncG offset="-0.05" type="gamma"/>
    <feFuncB offset="-0.05" type="gamma"/>
    <feFuncA type="identity"/>
   </feComponentTransfer>
  </filter>
 </defs>
 <metadata>
  <rdf:RDF>
   <cc:Work rdf:about="">
    <dc:format>image/svg+xml</dc:format>
    <dc:type rdf:resource="http://purl.org/dc/dcmitype/StillImage"/>
   </cc:Work>
  </rdf:RDF>
 </metadata>
 <g transform="translate(2.062e-6 -270.5)">
  <path transform="translate(6.08)" d="m15.9 270.5h241.3v264.6h-241.3z" clip-path="url(#clipPath6)" fill="url(#linearGradient2)" filter="url(#filter16)"/>
 </g>
</svg>
